<?xml version="1.0" encoding="utf-8"?>
<!-- Svg Vector Icons : http://www.onlinewebfonts.com/icon -->
<!DOCTYPE svg PUBLIC "-//W3C//DTD SVG 1.1//EN" "http://www.w3.org/Graphics/SVG/1.1/DTD/svg11.dtd">
<svg version="1.1" xmlns="http://www.w3.org/2000/svg" xmlns:xlink="http://www.w3.org/1999/xlink" x="0px" y="0px" viewBox="0 0 1000 1000" enable-background="new 0 0 1000 1000" xml:space="preserve">
<metadata> Svg Vector Icons : http://www.onlinewebfonts.com/icon </metadata>
<g><path d="M742,685.5c0,0-15.9,20.4-37.1,40.5l244.5,233.4l40.6-37L742,685.5L742,685.5z M828.8,432.5c0,231.7-183.2,405.6-410.3,405.6C181.7,834.8,10,653.2,10,432.9C10,220.1,194.8,40.6,418.5,40.6C645.6,40.6,828.8,222.4,828.8,432.5L828.8,432.5L828.8,432.5z M417,93.8c-194.7,0-352.4,153.8-352.4,345.6C64.6,631.2,222.4,786,417,786c194.7,0,357.2-154.9,357.2-346.7C774.2,247.6,611.7,93.8,417,93.8L417,93.8L417,93.8z"/></g>
</svg>